<svg width="20" height="20" viewBox="0 0 20 20" fill="none" xmlns="http://www.w3.org/2000/svg">
<path d="M17.8159 14.0942C16.5559 13.0292 15.8334 11.4725 15.8334 9.82333V7.5C15.8334 4.5675 13.655 2.14 10.8334 1.73333V0.833333C10.8334 0.3725 10.46 0 10 0C9.54002 0 9.16669 0.3725 9.16669 0.833333V1.73333C6.34419 2.14 4.16669 4.5675 4.16669 7.5V9.82333C4.16669 11.4725 3.44419 13.0292 2.17669 14.1008C1.85252 14.3783 1.66669 14.7817 1.66669 15.2083C1.66669 16.0125 2.32085 16.6667 3.12502 16.6667H16.875C17.6792 16.6667 18.3334 16.0125 18.3334 15.2083C18.3334 14.7817 18.1475 14.3783 17.8159 14.0942Z" fill="#EAEAEA"/>
<path d="M10 20C11.5092 20 12.7717 18.9242 13.0617 17.5H6.93835C7.22835 18.9242 8.49085 20 10 20Z" fill="url(#paint0_linear_71_3721)"/>
<defs>
<linearGradient id="paint0_linear_71_3721" x1="10" y1="17.5" x2="10" y2="20" gradientUnits="userSpaceOnUse">
<stop stop-color="#F61000"/>
<stop offset="1" stop-color="#F54D0D"/>
</linearGradient>
</defs>
</svg>
