<svg width="105" height="82" viewBox="0 0 105 82" fill="none" xmlns="http://www.w3.org/2000/svg">
<g clip-path="url(#clip0_3210_16785)">
<mask id="path-2-outside-1_3210_16785" maskUnits="userSpaceOnUse" x="0.105469" y="0.109131" width="105" height="66" fill="black">
<rect fill="white" x="0.105469" y="0.109131" width="105" height="66"/>
<path d="M2.10547 13.5114C2.10547 7.2141 7.21042 2.10913 13.5077 2.10913L91.975 2.10913C98.2723 2.10913 103.377 7.21409 103.377 13.5114L103.377 52.279C103.377 58.5762 98.2723 63.6812 91.9751 63.6812L13.5077 63.6812C7.21044 63.6812 2.10547 58.5763 2.10547 52.279L2.10547 13.5114Z"/>
</mask>
<path d="M2.10547 13.5114C2.10547 7.2141 7.21042 2.10913 13.5077 2.10913L91.975 2.10913C98.2723 2.10913 103.377 7.21409 103.377 13.5114L103.377 52.279C103.377 58.5762 98.2723 63.6812 91.9751 63.6812L13.5077 63.6812C7.21044 63.6812 2.10547 58.5763 2.10547 52.279L2.10547 13.5114Z" fill="#150B09"/>
<g filter="url(#filter0_f_3210_16785)">
<path d="M62.1135 8.73426C58.4964 3.38108 50.614 3.38107 46.997 8.73425L7.15805 67.6959C3.06481 73.7539 7.40504 81.9246 14.7163 81.9246L94.3942 81.9246C101.705 81.9246 106.046 73.7539 101.952 67.6959L62.1135 8.73426Z" fill="#D53E2A"/>
</g>
<mask id="path-5-outside-2_3210_16785" maskUnits="userSpaceOnUse" x="0.105469" y="0.109131" width="105" height="66" fill="black">
<rect fill="white" x="0.105469" y="0.109131" width="105" height="66"/>
<path d="M2.10547 13.5114C2.10547 7.2141 7.21042 2.10913 13.5077 2.10913L91.975 2.10913C98.2723 2.10913 103.377 7.21409 103.377 13.5114L103.377 52.279C103.377 58.5762 98.2723 63.6812 91.9751 63.6812L13.5077 63.6812C7.21044 63.6812 2.10547 58.5763 2.10547 52.279L2.10547 13.5114Z"/>
</mask>
<path d="M13.5077 2.10913V3.6915L91.975 3.6915V2.10913V0.526758L13.5077 0.526758V2.10913ZM103.377 13.5114H101.795L101.795 52.279H103.377H104.96L104.96 13.5114H103.377ZM91.9751 63.6812V62.0988L13.5077 62.0988L13.5077 63.6812V65.2636L91.9751 65.2636V63.6812ZM2.10547 52.279H3.68784L3.68784 13.5114H2.10547H0.523096L0.523096 52.279H2.10547ZM13.5077 63.6812L13.5077 62.0988C8.08436 62.0988 3.68784 57.7023 3.68784 52.279H2.10547H0.523096C0.523096 59.4502 6.33652 65.2636 13.5077 65.2636V63.6812ZM103.377 52.279H101.795C101.795 57.7023 97.3984 62.0988 91.9751 62.0988V63.6812V65.2636C99.1463 65.2636 104.96 59.4502 104.96 52.279H103.377ZM91.975 2.10913V3.6915C97.3984 3.6915 101.795 8.08801 101.795 13.5114H103.377H104.96C104.96 6.34016 99.1462 0.526758 91.975 0.526758V2.10913ZM13.5077 2.10913V0.526758C6.3365 0.526758 0.523096 6.34018 0.523096 13.5114H2.10547H3.68784C3.68784 8.08802 8.08435 3.6915 13.5077 3.6915V2.10913Z" fill="url(#paint0_linear_3210_16785)" mask="url(#path-5-outside-2_3210_16785)"/>
<path d="M13.5077 2.10913V3.6915L91.975 3.6915V2.10913V0.526758L13.5077 0.526758V2.10913ZM103.377 13.5114H101.795L101.795 52.279H103.377H104.96L104.96 13.5114H103.377ZM91.9751 63.6812V62.0988L13.5077 62.0988L13.5077 63.6812V65.2636L91.9751 65.2636V63.6812ZM2.10547 52.279H3.68784L3.68784 13.5114H2.10547H0.523096L0.523096 52.279H2.10547ZM13.5077 63.6812L13.5077 62.0988C8.08436 62.0988 3.68784 57.7023 3.68784 52.279H2.10547H0.523096C0.523096 59.4502 6.33652 65.2636 13.5077 65.2636V63.6812ZM103.377 52.279H101.795C101.795 57.7023 97.3984 62.0988 91.9751 62.0988V63.6812V65.2636C99.1463 65.2636 104.96 59.4502 104.96 52.279H103.377ZM91.975 2.10913V3.6915C97.3984 3.6915 101.795 8.08801 101.795 13.5114H103.377H104.96C104.96 6.34016 99.1462 0.526758 91.975 0.526758V2.10913ZM13.5077 2.10913V0.526758C6.3365 0.526758 0.523096 6.34018 0.523096 13.5114H2.10547H3.68784C3.68784 8.08802 8.08435 3.6915 13.5077 3.6915V2.10913Z" fill="url(#paint1_linear_3210_16785)" fill-opacity="0.2" mask="url(#path-5-outside-2_3210_16785)"/>
</g>
<path d="M13.5077 2.10913V3.6915L91.975 3.6915V2.10913V0.526758L13.5077 0.526758V2.10913ZM103.377 13.5114H101.795L101.795 52.279H103.377H104.96L104.96 13.5114H103.377ZM91.9751 63.6812V62.0988L13.5077 62.0988L13.5077 63.6812V65.2636L91.9751 65.2636V63.6812ZM2.10547 52.279H3.68784L3.68784 13.5114H2.10547H0.523096L0.523096 52.279H2.10547ZM13.5077 63.6812L13.5077 62.0988C8.08436 62.0988 3.68784 57.7023 3.68784 52.279H2.10547H0.523096C0.523096 59.4502 6.33652 65.2636 13.5077 65.2636V63.6812ZM103.377 52.279H101.795C101.795 57.7023 97.3984 62.0988 91.9751 62.0988V63.6812V65.2636C99.1463 65.2636 104.96 59.4502 104.96 52.279H103.377ZM91.975 2.10913V3.6915C97.3984 3.6915 101.795 8.08801 101.795 13.5114H103.377H104.96C104.96 6.34016 99.1462 0.526758 91.975 0.526758V2.10913ZM13.5077 2.10913V0.526758C6.3365 0.526758 0.523096 6.34018 0.523096 13.5114H2.10547H3.68784C3.68784 8.08802 8.08435 3.6915 13.5077 3.6915V2.10913Z" fill="url(#paint2_linear_3210_16785)" mask="url(#path-2-outside-1_3210_16785)"/>
<path d="M13.5077 2.10913V3.6915L91.975 3.6915V2.10913V0.526758L13.5077 0.526758V2.10913ZM103.377 13.5114H101.795L101.795 52.279H103.377H104.96L104.96 13.5114H103.377ZM91.9751 63.6812V62.0988L13.5077 62.0988L13.5077 63.6812V65.2636L91.9751 65.2636V63.6812ZM2.10547 52.279H3.68784L3.68784 13.5114H2.10547H0.523096L0.523096 52.279H2.10547ZM13.5077 63.6812L13.5077 62.0988C8.08436 62.0988 3.68784 57.7023 3.68784 52.279H2.10547H0.523096C0.523096 59.4502 6.33652 65.2636 13.5077 65.2636V63.6812ZM103.377 52.279H101.795C101.795 57.7023 97.3984 62.0988 91.9751 62.0988V63.6812V65.2636C99.1463 65.2636 104.96 59.4502 104.96 52.279H103.377ZM91.975 2.10913V3.6915C97.3984 3.6915 101.795 8.08801 101.795 13.5114H103.377H104.96C104.96 6.34016 99.1462 0.526758 91.975 0.526758V2.10913ZM13.5077 2.10913V0.526758C6.3365 0.526758 0.523096 6.34018 0.523096 13.5114H2.10547H3.68784C3.68784 8.08802 8.08435 3.6915 13.5077 3.6915V2.10913Z" fill="url(#paint3_linear_3210_16785)" fill-opacity="0.2" mask="url(#path-2-outside-1_3210_16785)"/>
<defs>
<filter id="filter0_f_3210_16785" x="-49.1526" y="-50.0114" width="207.415" height="186.667" filterUnits="userSpaceOnUse" color-interpolation-filters="sRGB">
<feFlood flood-opacity="0" result="BackgroundImageFix"/>
<feBlend mode="normal" in="SourceGraphic" in2="BackgroundImageFix" result="shape"/>
<feGaussianBlur stdDeviation="27.3654" result="effect1_foregroundBlur_3210_16785"/>
</filter>
<linearGradient id="paint0_linear_3210_16785" x1="49.7628" y1="32.8952" x2="103.377" y2="32.8952" gradientUnits="userSpaceOnUse">
<stop stop-color="#D53E2A" stop-opacity="0.2"/>
<stop offset="0.197115" stop-color="#D53E2A"/>
<stop offset="0.5" stop-color="#D53E2A"/>
<stop offset="0.8" stop-color="#D53E2A"/>
<stop offset="1" stop-color="#D53E2A" stop-opacity="0.2"/>
</linearGradient>
<linearGradient id="paint1_linear_3210_16785" x1="103.377" y1="63.6812" x2="49.4371" y2="63.3945" gradientUnits="userSpaceOnUse">
<stop stop-color="#D53E2A"/>
<stop offset="1" stop-color="#D53E2A"/>
</linearGradient>
<linearGradient id="paint2_linear_3210_16785" x1="49.7628" y1="32.8952" x2="103.377" y2="32.8952" gradientUnits="userSpaceOnUse">
<stop stop-color="#D53E2A" stop-opacity="0.2"/>
<stop offset="0.197115" stop-color="#D53E2A"/>
<stop offset="0.5" stop-color="#D53E2A"/>
<stop offset="0.8" stop-color="#D53E2A"/>
<stop offset="1" stop-color="#D53E2A" stop-opacity="0.2"/>
</linearGradient>
<linearGradient id="paint3_linear_3210_16785" x1="103.377" y1="63.6812" x2="49.4371" y2="63.3945" gradientUnits="userSpaceOnUse">
<stop stop-color="#D53E2A"/>
<stop offset="1" stop-color="#D53E2A"/>
</linearGradient>
<clipPath id="clip0_3210_16785">
<path d="M2.10547 13.5114C2.10547 7.2141 7.21042 2.10913 13.5077 2.10913L91.975 2.10913C98.2723 2.10913 103.377 7.21409 103.377 13.5114L103.377 52.279C103.377 58.5762 98.2723 63.6812 91.9751 63.6812L13.5077 63.6812C7.21044 63.6812 2.10547 58.5763 2.10547 52.279L2.10547 13.5114Z" fill="white"/>
</clipPath>
</defs>
</svg>
