<svg width="182" height="40" viewBox="0 0 182 40" fill="none" xmlns="http://www.w3.org/2000/svg">
<g clip-path="url(#clip0_3210_16818)">
<mask id="path-1-inside-1_3210_16818" fill="white">
<path d="M178 0C178 2.20914 179.791 4 182 4V36C179.791 36 178 37.7909 178 40H4C4 37.7909 2.20914 36 0 36V4C2.20914 4 4 2.20914 4 0H178Z"/>
</mask>
<path d="M178 0C178 2.20914 179.791 4 182 4V36C179.791 36 178 37.7909 178 40H4C4 37.7909 2.20914 36 0 36V4C2.20914 4 4 2.20914 4 0H178Z" fill="#221917"/>
<path d="M178 0H179V-1H178V0ZM182 4H183V3H182V4ZM182 36V37H183V36H182ZM178 40V41H179V40H178ZM4 40H3V41H4V40ZM0 36H-1V37H0V36ZM0 4V3H-1V4H0ZM4 0V-1H3V0H4ZM178 0H177C177 2.76142 179.239 5 182 5V4V3C180.343 3 179 1.65685 179 0H178ZM182 4H181V36H182H183V4H182ZM182 36V35C179.239 35 177 37.2386 177 40H178H179C179 38.3431 180.343 37 182 37V36ZM178 40V39H4V40V41H178V40ZM4 40H5C5 37.2386 2.76142 35 0 35V36V37C1.65685 37 3 38.3431 3 40H4ZM0 36H1V4H0H-1V36H0ZM0 4V5C2.76142 5 5 2.76142 5 0H4H3C3 1.65685 1.65685 3 0 3V4ZM4 0V1H178V0V-1H4V0Z" fill="white" fill-opacity="0.2" mask="url(#path-1-inside-1_3210_16818)"/>
</g>
<defs>
<clipPath id="clip0_3210_16818">
<rect width="182" height="40" fill="white"/>
</clipPath>
</defs>
</svg>
