<svg width="19" height="20" viewBox="0 0 19 20" fill="none" xmlns="http://www.w3.org/2000/svg">
<path d="M13.5473 16.1656V2.18437C13.5471 1.93661 13.4486 1.69903 13.2734 1.52383C13.0982 1.34863 12.8607 1.25014 12.6129 1.25H3.16602C2.91792 1.25002 2.67995 1.34837 2.50423 1.52351C2.32851 1.69864 2.22936 1.93628 2.22852 2.18437V16.1656C2.22924 16.414 2.32825 16.6521 2.5039 16.8277C2.67956 17.0034 2.9176 17.1024 3.16602 17.1031H12.6129C12.861 17.1023 13.0986 17.0031 13.2738 16.8274C13.4489 16.6517 13.5472 16.4137 13.5473 16.1656ZM6.64727 5.29688H4.15977C4.07689 5.29688 3.9974 5.26395 3.93879 5.20535C3.88019 5.14674 3.84727 5.06726 3.84727 4.98438C3.84727 4.90149 3.88019 4.82201 3.93879 4.7634C3.9974 4.7048 4.07689 4.67188 4.15977 4.67188H6.64727C6.73015 4.67188 6.80963 4.7048 6.86824 4.7634C6.92684 4.82201 6.95977 4.90149 6.95977 4.98438C6.95977 5.06726 6.92684 5.14674 6.86824 5.20535C6.80963 5.26395 6.73015 5.29688 6.64727 5.29688ZM9.13477 4.05313H4.15977C4.07689 4.05313 3.9974 4.0202 3.93879 3.9616C3.88019 3.90299 3.84727 3.82351 3.84727 3.74063C3.84727 3.65774 3.88019 3.57826 3.93879 3.51965C3.9974 3.46105 4.07689 3.42813 4.15977 3.42813H9.13477C9.21765 3.42813 9.29713 3.46105 9.35574 3.51965C9.41434 3.57826 9.44727 3.65774 9.44727 3.74063C9.44727 3.82351 9.41434 3.90299 9.35574 3.9616C9.29713 4.0202 9.21765 4.05313 9.13477 4.05313Z" fill="#EAEAEA"/>
<path d="M18.9353 3.50937C18.8656 3.4082 18.7763 3.32205 18.6727 3.25603C18.5691 3.19 18.4533 3.14544 18.3322 3.125L14.1728 2.39062V16.1656C14.1731 16.5796 14.009 16.9767 13.7166 17.2697C13.4242 17.5627 13.0274 17.7276 12.6134 17.7281H11.3103C11.3133 17.8001 11.3406 17.8689 11.3877 17.9233C11.4348 17.9778 11.4989 18.0147 11.5697 18.0281L15.5791 18.7375C15.6317 18.7463 15.685 18.7505 15.7384 18.75C15.9588 18.7489 16.1718 18.6709 16.3407 18.5294C16.5097 18.3879 16.6238 18.1918 16.6634 17.975L19.0884 4.20625C19.11 4.08573 19.1075 3.96215 19.0813 3.84257C19.055 3.72299 19.0054 3.60977 18.9353 3.50937Z" fill="url(#paint0_linear_71_7126)"/>
<defs>
<linearGradient id="paint0_linear_71_7126" x1="15.2066" y1="2.39062" x2="15.2066" y2="18.75" gradientUnits="userSpaceOnUse">
<stop stop-color="#F61000"/>
<stop offset="0.653846" stop-color="#F54D0D"/>
</linearGradient>
</defs>
</svg>
