<svg width="12" height="12" viewBox="0 0 12 12" fill="none" xmlns="http://www.w3.org/2000/svg">
<g clip-path="url(#clip0_71_3748)">
<path d="M8.00363 6.61146C8.48377 6.57717 8.93126 6.39096 9.29546 6.07581C9.37366 6.01251 9.46115 5.92074 9.52738 5.84551C9.84259 5.48291 10.0271 5.03378 10.0614 4.55364C10.0698 4.46077 10.0705 4.32738 10.0614 4.227C10.0252 3.69536 9.80064 3.19904 9.41631 2.81432C9.0464 2.44403 8.55131 2.20648 8.00363 2.16918C7.90205 2.16002 7.76988 2.1608 7.67699 2.16918C7.19683 2.20347 6.7477 2.38968 6.38514 2.70323C6.34431 2.7392 6.30512 2.77509 6.2659 2.81432C6.22671 2.85355 6.18915 2.89271 6.15486 2.93521C5.86578 3.26671 5.6845 3.67333 5.63062 4.10619C5.96542 4.24829 6.27898 4.44263 6.55825 4.68107H6.56315C6.61933 4.73394 6.77354 4.86599 6.91266 5.02405C6.96818 5.08442 7.02045 5.14654 7.07107 5.21018L7.24745 4.66959C7.26543 4.61735 7.24581 4.56185 7.20337 4.53075L6.66931 4.14375C6.57133 4.07349 6.62195 3.91998 6.74118 3.91998H7.40261C7.45486 3.91998 7.50223 3.88569 7.51858 3.83506L7.72434 3.20627C7.76029 3.09359 7.92197 3.09359 7.95789 3.20627L8.16204 3.83506C8.18 3.88569 8.22735 3.91998 8.27963 3.91998H8.94107C9.06029 3.91998 9.10929 4.07349 9.01292 4.14375L8.47887 4.53075C8.43477 4.56185 8.41683 4.61735 8.43313 4.66959L8.63892 5.29838C8.67484 5.41273 8.54583 5.50579 8.44785 5.43554L7.91379 5.04854C7.8697 5.01584 7.8109 5.01584 7.76844 5.04854L7.23439 5.43554C7.481 5.79487 7.65901 6.19503 7.76356 6.6164C7.78967 6.618 7.81581 6.618 7.84194 6.618C7.89583 6.618 7.94972 6.6164 8.00363 6.61146Z" fill="url(#paint0_linear_71_3748)"/>
<path d="M5.92327 2.70357L5.33322 2.11523C4.89684 2.59575 4.61081 3.18409 4.50293 3.81831C4.7808 3.84441 5.05374 3.90003 5.31688 3.9883C5.39208 3.51097 5.60127 3.06645 5.92327 2.70357Z" fill="white"/>
<path d="M7.67584 1.84188V1.0083C6.88476 1.04589 6.14599 1.35315 5.5625 1.88434L6.15253 2.47443C6.57587 2.09686 7.10706 1.87779 7.67584 1.84188Z" fill="white"/>
<path d="M10.1197 1.88434C9.55584 1.37118 8.81707 1.04589 8.00476 1.0083V1.84188C8.57354 1.87779 9.10474 2.09686 9.52969 2.47443L10.1197 1.88434Z" fill="white"/>
<path d="M10.3902 4.22921H11.2238C11.1862 3.41694 10.8609 2.67817 10.3477 2.11426L9.75769 2.70427C10.1352 3.12924 10.3542 3.66211 10.3902 4.22921Z" fill="white"/>
<path d="M8.00624 6.9387C7.95231 6.94364 7.89841 6.94524 7.8445 6.94524H7.83142C7.8624 7.13352 7.87717 7.33906 7.87717 7.51377C7.87717 7.61926 7.87302 7.6864 7.86736 7.77677C7.91311 7.77677 7.96049 7.77518 8.00624 7.77191C8.79532 7.73593 9.53538 7.42881 10.1203 6.89785L9.53049 6.30811C9.10573 6.68383 8.57313 6.9044 8.00624 6.9387Z" fill="white"/>
<path d="M9.7616 6.07866L10.35 6.66707C10.8828 6.08353 11.1885 5.34483 11.226 4.55371H10.3925C10.3565 5.1209 10.1375 5.65209 9.7616 6.07866Z" fill="white"/>
<path d="M5.61426 9.19997C5.69756 9.12812 5.77431 9.05132 5.84455 8.96807C6.14995 8.61695 6.34429 8.16783 6.38023 7.6762C6.38899 7.57958 6.389 7.44631 6.38023 7.34956C6.34429 6.85794 6.14995 6.41049 5.84455 6.05937C5.77431 5.97604 5.69592 5.89765 5.61263 5.82747C5.26151 5.52205 4.81402 5.32603 4.3208 5.29174C4.22352 5.28297 4.0915 5.28296 3.99416 5.29174C3.50257 5.32771 3.05345 5.52364 2.70231 5.82747C2.62065 5.89932 2.5439 5.97604 2.47203 6.05769C1.75106 6.89104 1.74773 8.12866 2.47203 8.96966C2.5439 9.05132 2.62065 9.12812 2.70231 9.19997C3.05345 9.50372 3.50257 9.69973 3.99416 9.73561C4.08997 9.7444 4.22488 9.74441 4.3208 9.73561C4.81402 9.69973 5.26151 9.50372 5.61426 9.19997ZM4.15912 9.07907C4.06765 9.07907 3.9958 9.00563 3.9958 8.91576V8.14C3.99253 8.14 3.98926 8.14327 3.98599 8.14653C3.93535 8.1939 3.88964 8.24454 3.8439 8.29518C3.54013 8.63489 2.97833 8.48298 2.8885 8.03712L2.88686 8.02899C2.86563 7.93098 2.87542 7.83952 2.90158 7.75132C2.92442 7.67293 2.99302 7.56025 3.04855 7.4998C3.46569 7.02127 3.71219 6.8097 3.96151 6.40722C4.01376 6.32396 4.05947 6.23576 4.11175 6.15084C4.12156 6.13449 4.14277 6.1116 4.15748 6.1116C4.17708 6.11328 4.19994 6.13449 4.20973 6.15243C4.62934 6.95282 5.27816 7.39117 5.3889 7.66806C5.39054 7.67133 5.39217 7.67452 5.39379 7.67787C5.46075 7.85746 5.46075 8.06328 5.37092 8.23146C5.2958 8.37357 5.16841 8.48792 5.00019 8.52054C4.82056 8.55323 4.6654 8.49933 4.54127 8.36703C4.46613 8.28864 4.39755 8.20371 4.32734 8.12046C4.3257 8.11878 4.32407 8.11719 4.32243 8.11719V8.91576C4.32243 9.00563 4.24895 9.07907 4.15912 9.07907Z" fill="url(#paint1_linear_71_3748)"/>
<path d="M4.31982 10.0649V10.8968C5.13214 10.8592 5.87091 10.5339 6.43478 10.0208L5.84475 9.43066C5.43289 9.79522 4.90169 10.0273 4.31982 10.0649Z" fill="white"/>
<path d="M6.07861 5.82816C6.43982 6.24004 6.67353 6.76956 6.71114 7.35143H7.54307C7.50548 6.54075 7.18023 5.80358 6.66701 5.23975L6.07861 5.82816Z" fill="white"/>
<path d="M6.07861 9.2017L6.66701 9.79012C7.18023 9.22461 7.50548 8.48743 7.54307 7.67676H6.71114C6.67353 8.26022 6.44145 8.78982 6.07861 9.2017Z" fill="white"/>
<path d="M6.43315 5.00844C5.86927 4.49521 5.1305 4.16991 4.31982 4.13232V4.96591C4.90169 5.0019 5.43289 5.23557 5.84475 5.59686L6.43315 5.00844Z" fill="white"/>
<path d="M1.61096 7.67676H0.779053C0.816642 8.48911 1.14189 9.2262 1.65509 9.79171L2.24514 9.2017C1.88066 8.78982 1.64857 8.26022 1.61096 7.67676Z" fill="white"/>
<path d="M1.88538 10.0208C2.44927 10.5339 3.18804 10.8592 3.99872 10.8968V10.0649C3.41685 10.0273 2.88729 9.79522 2.47541 9.43066L1.88538 10.0208Z" fill="white"/>
<path d="M2.24514 5.82837L1.65509 5.23828C1.14189 5.8022 0.816642 6.53929 0.779053 7.35164H1.61259C1.64857 6.76977 1.88066 6.24025 2.24514 5.82837Z" fill="white"/>
<path d="M3.99872 4.96591V4.13232C3.18804 4.16991 2.44927 4.4968 1.88538 5.00844L2.47541 5.59845C2.88729 5.23557 3.41685 5.0019 3.99872 4.96591Z" fill="white"/>
</g>
<defs>
<linearGradient id="paint0_linear_71_3748" x1="7.84931" y1="2.1626" x2="7.84931" y2="6.618" gradientUnits="userSpaceOnUse">
<stop stop-color="#F61000"/>
<stop offset="0.653846" stop-color="#F54D0D"/>
</linearGradient>
<linearGradient id="paint1_linear_71_3748" x1="4.15843" y1="5.28516" x2="4.15843" y2="9.74221" gradientUnits="userSpaceOnUse">
<stop stop-color="#F61000"/>
<stop offset="0.653846" stop-color="#F54D0D"/>
</linearGradient>
<clipPath id="clip0_71_3748">
<rect width="11.1056" height="11.1056" fill="white" transform="translate(0.443237 0.398926)"/>
</clipPath>
</defs>
</svg>
