<svg width="20" height="20" viewBox="0 0 20 20" fill="none" xmlns="http://www.w3.org/2000/svg">
<g opacity="0.8" clip-path="url(#clip0_71_5319)">
<path d="M16.3698 4.13329C16.2001 4.46966 15.9123 4.72117 15.5577 4.83935C15.2001 4.95753 14.8213 4.93026 14.485 4.76056L12.7274 3.88178C12.5789 3.80602 12.4092 3.79693 12.2516 3.85147C12.0941 3.90299 11.9698 4.01208 11.8941 4.16056L11.6698 4.61208L10.9668 4.26057L11.191 3.81511C11.3607 3.47875 11.6456 3.22723 12.0032 3.10905C12.3607 2.99087 12.7395 3.01814 13.0729 3.18481L14.8335 4.06663C14.9819 4.13632 15.1456 4.15147 15.3032 4.09693C15.4607 4.04541 15.588 3.93632 15.6638 3.78784C15.7577 3.59693 15.9971 3.51208 16.188 3.61208C16.385 3.70602 16.4638 3.93935 16.3698 4.13329Z" fill="#D9D9D9"/>
<path d="M9.8944 5.782C9.93986 5.80019 9.98531 5.81837 10.0308 5.83655C10.1914 5.90322 10.352 5.97291 10.5126 6.0517C10.7429 6.16685 10.958 6.29412 11.1702 6.42746C11.2277 6.46382 11.2823 6.50019 11.3368 6.53655C11.3974 6.57594 11.4611 6.61534 11.5217 6.65776L11.6883 6.3214C11.8702 5.95473 11.7217 5.50625 11.355 5.32746L10.5883 4.94261C10.4126 4.85473 10.2096 4.83958 10.0217 4.90322C9.83379 4.96685 9.68228 5.09715 9.5944 5.27594L9.42773 5.61534C9.45198 5.62443 9.47925 5.63352 9.50349 5.64261C9.63379 5.682 9.7641 5.73049 9.8944 5.782Z" fill="#D9D9D9"/>
<path d="M11.4086 7.56407C11.4056 7.56103 11.4056 7.56103 11.4086 7.56407C11.2238 7.40952 11.0268 7.2671 10.8177 7.13073C10.6086 6.99437 10.3904 6.87013 10.1601 6.75194C9.70863 6.5277 9.23893 6.35801 8.77227 6.24588C8.25105 6.12164 7.72984 6.06104 7.21469 6.06104C4.77833 6.06104 2.50863 7.42164 1.37227 9.68831C-0.242886 12.9156 1.07227 16.858 4.30257 18.4762C7.53287 20.0913 11.4753 18.7732 13.0904 15.5429C14.4662 12.8004 13.7753 9.51861 11.4086 7.56407ZM3.07227 10.5368C2.46014 11.758 2.41772 13.1822 2.95408 14.4398C3.03893 14.6398 2.94499 14.8701 2.74802 14.955C2.69651 14.9762 2.64499 14.9853 2.59348 14.9853C2.44196 14.9853 2.29651 14.8944 2.23287 14.7459C1.6056 13.2762 1.65711 11.6126 2.37227 10.1853C2.46924 9.99134 2.7056 9.91255 2.89954 10.0095C3.09045 10.1065 3.16924 10.3429 3.07227 10.5368Z" fill="#D9D9D9"/>
<path d="M5.15341 16.7729C4.63523 16.5153 4.17765 16.1698 3.7928 15.7456C3.64735 15.585 3.39887 15.5729 3.23826 15.7183C3.07765 15.8638 3.06553 16.1123 3.21099 16.2729C3.6625 16.7668 4.19583 17.1729 4.79887 17.4729C4.85644 17.5001 4.91402 17.5153 4.97462 17.5153C5.11705 17.5153 5.25644 17.4365 5.32614 17.3001C5.42311 17.1062 5.34432 16.8698 5.15341 16.7729Z" fill="#D9D9D9"/>
<path d="M15.8727 0.839441C15.6575 0.809138 15.4575 0.954592 15.4242 1.16671L15.2605 2.22429C15.2272 2.43944 15.3757 2.63944 15.5878 2.67277C15.609 2.6758 15.6272 2.67883 15.6484 2.67883C15.8393 2.67883 16.006 2.53944 16.0363 2.3455L16.1999 1.28793C16.2333 1.07277 16.0848 0.872774 15.8727 0.839441Z" fill="#D9D9D9"/>
<path d="M17.8187 1.70596C17.6429 1.57869 17.3974 1.62111 17.2732 1.79687L16.6641 2.65444C16.5399 2.8302 16.5793 3.07566 16.755 3.1999C16.8247 3.24838 16.9035 3.27263 16.9823 3.27263C17.1035 3.27263 17.2247 3.21505 17.3005 3.10899L17.9096 2.25141C18.0338 2.07566 17.9944 1.83323 17.8187 1.70596Z" fill="#D9D9D9"/>
<path d="M19.2723 3.26073C19.1723 3.06982 18.9329 2.99709 18.7419 3.09709L17.7965 3.59709C17.6056 3.69709 17.5329 3.93648 17.6329 4.12739C17.7026 4.26073 17.8389 4.33648 17.9813 4.33648C18.0419 4.33648 18.1056 4.32133 18.1632 4.29103L19.1086 3.79103C19.2995 3.688 19.3723 3.45164 19.2723 3.26073Z" fill="#D9D9D9"/>
</g>
<defs>
<clipPath id="clip0_71_5319">
<rect width="20" height="20" fill="white"/>
</clipPath>
</defs>
</svg>
