<svg width="20" height="20" viewBox="0 0 20 20" fill="none" xmlns="http://www.w3.org/2000/svg">
<g opacity="0.9">
<path d="M13.8655 7.10836C13.8801 6.56269 14.2024 6.35972 14.2664 5.90562C14.3381 5.23198 14.2393 4.55113 13.9791 3.92565C13.7189 3.30017 13.3057 2.75013 12.7773 2.32608C11.9714 1.7493 10.9877 1.47549 9.99962 1.5529C9.01155 1.47549 8.02786 1.7493 7.22189 2.32608C6.69358 2.75013 6.28033 3.30017 6.02013 3.92565C5.75993 4.55113 5.66113 5.23198 5.7328 5.90562C5.79679 6.35972 6.11914 6.56269 6.13371 7.10836C6.15232 7.80529 5.49753 8.00577 5.56097 8.6261C5.58162 8.81176 5.64716 8.98961 5.75194 9.14428C5.85671 9.29894 5.99757 9.42577 6.16234 9.51381C6.63981 9.74071 7.35569 9.09114 7.66202 10.731C7.67982 10.8316 7.71969 10.927 7.77876 11.0103C7.83783 11.0936 7.91464 11.1628 8.00365 11.2129C8.61526 11.5426 9.30575 11.6978 9.99962 11.6615C10.6935 11.6978 11.384 11.5426 11.9956 11.2129C12.0846 11.1628 12.1614 11.0936 12.2205 11.0103C12.2795 10.927 12.3194 10.8316 12.3372 10.731C12.6435 9.09114 13.3594 9.74071 13.8369 9.51381C14.0017 9.42577 14.1425 9.29894 14.2473 9.14428C14.3521 8.98961 14.4176 8.81176 14.4383 8.6261C14.5017 8.00577 13.8469 7.80529 13.8655 7.10836ZM8.48635 8.30398C8.26799 8.34383 7.57902 8.43966 7.19856 8.07203C6.75959 7.64784 6.88009 6.72823 7.21457 6.42427C7.52957 6.13802 8.07797 6.21141 8.43037 6.26432C8.62258 6.26985 8.81053 6.32229 8.97783 6.41709C9.14513 6.51189 9.28671 6.64617 9.39022 6.80822C9.57418 7.13617 9.33827 7.61192 9.31822 7.65608C9.24773 7.82699 9.13396 7.97661 8.9881 8.09022C8.84224 8.20382 8.66932 8.27749 8.48635 8.30398ZM10.6836 10.2968C10.5299 10.3904 10.2246 10.2992 9.99849 10.0769C9.77238 10.2992 9.46934 10.3904 9.31566 10.2968C9.13088 10.1843 9.14097 9.83106 9.2115 9.66026C9.35372 9.3138 9.52912 8.9819 9.73525 8.66922C9.81412 8.55817 9.88932 8.56939 9.99963 8.64751C10.1099 8.56939 10.1851 8.55817 10.264 8.66922C10.4701 8.9819 10.6455 9.3138 10.7878 9.66026C10.8582 9.83106 10.8684 10.1843 10.6836 10.2968ZM12.8007 8.07203C12.4202 8.43966 11.7312 8.34383 11.5129 8.30398C11.3299 8.27749 11.157 8.20382 11.0111 8.09022C10.8653 7.97662 10.7515 7.82699 10.681 7.65608C10.661 7.61192 10.4251 7.13617 10.609 6.80822C10.7125 6.64617 10.8541 6.51189 11.0214 6.41709C11.1887 6.32229 11.3767 6.26985 11.5689 6.26432C11.9213 6.21141 12.4697 6.13802 12.7847 6.42427C13.1191 6.72822 13.2396 7.64784 12.8007 8.07203Z" fill="#D9D9D9"/>
<path d="M7.93665 14.9658C8.42103 15.1908 8.8554 15.3939 9.24915 15.5752C7.03665 16.5971 6.7804 16.7252 6.55853 17.2814C6.45297 17.6116 6.29923 17.9243 6.10228 18.2096C6.00324 18.3095 5.88014 18.3823 5.74483 18.4209C5.60953 18.4595 5.46656 18.4626 5.3297 18.43C5.19284 18.3973 5.06668 18.33 4.96336 18.2345C4.86005 18.139 4.78305 18.0185 4.73978 17.8846C4.686 17.6446 4.68814 17.3955 4.74603 17.1564C4.75182 17.1421 4.75471 17.1267 4.75454 17.1112C4.75437 17.0958 4.75114 17.0805 4.74505 17.0662C4.73895 17.052 4.7301 17.0391 4.719 17.0283C4.70791 17.0175 4.69479 17.009 4.6804 17.0033C3.68665 16.6127 3.84603 15.5002 4.59916 15.3033C5.05853 15.1846 5.56478 15.5314 6.04915 15.5564C6.38353 15.5721 7.08978 15.3252 7.93665 14.9658Z" fill="#D9D9D9"/>
<path d="M15.2934 13.9312C14.6371 13.975 14.4965 13.6187 13.8246 13.6468C13.5361 13.656 13.252 13.7197 12.9871 13.8343C12.6559 13.9906 12.3434 14.1406 12.0465 14.2781C11.6215 14.0906 11.1652 13.8812 10.7246 13.675C11.2777 13.4062 11.7902 13.1531 12.209 12.9531C12.5721 12.777 12.9087 12.5508 13.209 12.2812C13.5684 11.8125 13.4371 11.2093 14.0152 10.8718C14.434 10.625 15.4652 10.7531 15.2184 12.0093C15.2059 12.0651 15.2143 12.1236 15.2419 12.1736C15.2696 12.2237 15.3145 12.262 15.3684 12.2812C15.5163 12.3403 15.6495 12.431 15.7585 12.5471C15.8676 12.6632 15.9499 12.8018 15.9996 12.9531C16.0329 13.1761 15.9777 13.4032 15.8457 13.586C15.7138 13.7688 15.5155 13.8927 15.2934 13.9312Z" fill="#D9D9D9"/>
<path d="M15.3185 17.0031C15.3041 17.0088 15.291 17.0173 15.2799 17.0281C15.2688 17.0389 15.2599 17.0518 15.2538 17.066C15.2477 17.0802 15.2445 17.0955 15.2443 17.111C15.2442 17.1265 15.2471 17.1418 15.2529 17.1562C15.3107 17.3952 15.3129 17.6444 15.2591 17.8843C15.2158 18.0182 15.1388 18.1387 15.0355 18.2342C14.9322 18.3297 14.806 18.3971 14.6692 18.4297C14.5323 18.4624 14.3894 18.4592 14.254 18.4206C14.1187 18.382 13.9956 18.3093 13.8966 18.2093C13.6997 17.9241 13.5459 17.6114 13.4404 17.2812C13.1302 16.5018 12.7404 16.5552 7.01223 13.8343C6.74736 13.7197 6.46321 13.656 6.17473 13.6468C5.50285 13.6187 5.36223 13.975 4.70598 13.9312C4.48383 13.8927 4.28558 13.7688 4.1536 13.586C4.02162 13.4032 3.96639 13.1761 3.99973 12.9531C4.04945 12.8018 4.13174 12.6632 4.2408 12.5471C4.34987 12.431 4.48305 12.3403 4.63098 12.2812C4.68482 12.262 4.72978 12.2237 4.7574 12.1736C4.78502 12.1236 4.79341 12.0651 4.78098 12.0093C4.5341 10.7531 5.56535 10.625 5.9841 10.8718C6.56223 11.2093 6.43098 11.8125 6.79035 12.2812C7.15053 12.7614 13.0235 15.5968 13.9497 15.5562C14.4341 15.5312 14.9404 15.1843 15.3997 15.3031C16.1529 15.5 16.3122 16.6125 15.3185 17.0031Z" fill="#D9D9D9"/>
</g>
</svg>
