<svg width="12" height="12" viewBox="0 0 12 12" fill="none" xmlns="http://www.w3.org/2000/svg">
<g clip-path="url(#clip0_71_3777)">
<path d="M9.94187 6.60596H9.08301C9.17055 6.84564 9.21838 7.1043 9.21838 7.37389V10.6199C9.21838 10.7323 9.19881 10.8402 9.16322 10.9405H10.5831C11.1135 10.9405 11.545 10.509 11.545 9.97864V8.20909C11.545 7.32513 10.8259 6.60596 9.94187 6.60596Z" fill="white"/>
<path d="M2.77367 7.37389C2.77367 7.10428 2.8215 6.84564 2.90904 6.60596H2.05018C1.1662 6.60596 0.447021 7.32513 0.447021 8.20911V9.97866C0.447021 10.509 0.878514 10.9406 1.40892 10.9406H2.82883C2.79324 10.8402 2.77367 10.7323 2.77367 10.6199V7.37389Z" fill="white"/>
<path d="M6.97289 5.771H5.00941C4.12543 5.771 3.40625 6.49017 3.40625 7.37415V10.6202C3.40625 10.7972 3.5498 10.9408 3.72688 10.9408H8.25542C8.4325 10.9408 8.57605 10.7972 8.57605 10.6202V7.37415C8.57605 6.49017 7.85688 5.771 6.97289 5.771Z" fill="white"/>
<path d="M5.99465 1.52051C4.93154 1.52051 4.06665 2.3854 4.06665 3.44853C4.06665 4.16963 4.46465 4.79942 5.05243 5.13008C5.33122 5.2869 5.65263 5.37653 5.99465 5.37653C6.33667 5.37653 6.65808 5.2869 6.93687 5.13008C7.52467 4.79942 7.92265 4.16961 7.92265 3.44853C7.92265 2.38542 7.05775 1.52051 5.99465 1.52051Z" fill="url(#paint0_linear_71_3777)"/>
<path d="M2.60618 3.31689C1.81085 3.31689 1.16382 3.96392 1.16382 4.75926C1.16382 5.55459 1.81085 6.20162 2.60618 6.20162C2.80793 6.20162 3.00004 6.15983 3.17456 6.08471C3.47629 5.95481 3.72507 5.72486 3.87902 5.43682C3.98708 5.23466 4.04855 5.00403 4.04855 4.75926C4.04855 3.96395 3.40152 3.31689 2.60618 3.31689Z" fill="url(#paint1_linear_71_3777)"/>
<path d="M9.38658 3.31689C8.59124 3.31689 7.94421 3.96392 7.94421 4.75926C7.94421 5.00405 8.00568 5.23468 8.11374 5.43682C8.26769 5.72488 8.51647 5.95483 8.8182 6.08471C8.99272 6.15983 9.18483 6.20162 9.38658 6.20162C10.1819 6.20162 10.8289 5.55459 10.8289 4.75926C10.8289 3.96392 10.1819 3.31689 9.38658 3.31689Z" fill="url(#paint2_linear_71_3777)"/>
</g>
<defs>
<linearGradient id="paint0_linear_71_3777" x1="5.99465" y1="1.52051" x2="5.99465" y2="5.37653" gradientUnits="userSpaceOnUse">
<stop stop-color="#F61000"/>
<stop offset="0.653846" stop-color="#F54D0D"/>
</linearGradient>
<linearGradient id="paint1_linear_71_3777" x1="2.60618" y1="3.31689" x2="2.60618" y2="6.20162" gradientUnits="userSpaceOnUse">
<stop stop-color="#F61000"/>
<stop offset="0.653846" stop-color="#F54D0D"/>
</linearGradient>
<linearGradient id="paint2_linear_71_3777" x1="9.38658" y1="3.31689" x2="9.38658" y2="6.20162" gradientUnits="userSpaceOnUse">
<stop stop-color="#F61000"/>
<stop offset="0.653846" stop-color="#F54D0D"/>
</linearGradient>
<clipPath id="clip0_71_3777">
<rect width="11.1056" height="11.1056" fill="white" transform="translate(0.443237 0.677734)"/>
</clipPath>
</defs>
</svg>
