<svg width="20" height="20" viewBox="0 0 20 20" fill="none" xmlns="http://www.w3.org/2000/svg">
<g clip-path="url(#clip0_71_5454)">
<path d="M18.0075 8.20709C17.76 3.94322 14.2229 0.547363 9.89809 0.547363C5.56559 0.547363 2.02391 3.95432 1.78676 8.22791C0.779727 8.37068 0 9.22975 0 10.276V13.3958C0 14.5412 0.931797 15.4729 2.07711 15.4729H5.00051V8.19857H3.10535C3.35453 4.66494 6.30203 1.86436 9.89805 1.86436C13.4939 1.86436 16.4409 4.6649 16.6901 8.19857H14.9995V15.4729H16.3793C15.1328 17.1333 13.186 18.1356 11.062 18.1356C10.6453 18.1356 10.2286 18.097 9.82344 18.0204C9.46332 17.9555 9.12121 18.1886 9.05434 18.5458C8.9868 18.9034 9.22219 19.2474 9.57906 19.3149C10.0646 19.4063 10.5636 19.4526 11.062 19.4526C13.9316 19.4526 16.5398 17.9346 17.967 15.4684C19.0917 15.4443 20 14.526 20 13.3958V10.276C20 9.1594 19.1129 8.25268 18.0075 8.20709Z" fill="#D9D9D9"/>
</g>
<defs>
<clipPath id="clip0_71_5454">
<rect width="20" height="20" fill="white"/>
</clipPath>
</defs>
</svg>
