<svg width="12" height="12" viewBox="0 0 12 12" fill="none" xmlns="http://www.w3.org/2000/svg">
<path d="M6.97289 5.63184H5.00941C4.12543 5.63184 3.40625 6.35101 3.40625 7.23499V10.481C3.40625 10.6581 3.5498 10.8016 3.72688 10.8016H8.25542C8.4325 10.8016 8.57605 10.6581 8.57605 10.481V7.23499C8.57605 6.35101 7.85688 5.63184 6.97289 5.63184Z" fill="white"/>
<path d="M5.99465 1.38135C4.93154 1.38135 4.06665 2.24624 4.06665 3.30937C4.06665 4.03047 4.46465 4.66026 5.05243 4.99092C5.33122 5.14774 5.65263 5.23737 5.99465 5.23737C6.33667 5.23737 6.65808 5.14774 6.93687 4.99092C7.52467 4.66026 7.92265 4.03045 7.92265 3.30937C7.92265 2.24626 7.05775 1.38135 5.99465 1.38135Z" fill="url(#paint0_linear_71_3768)"/>
<defs>
<linearGradient id="paint0_linear_71_3768" x1="5.99465" y1="1.38135" x2="5.99465" y2="5.23737" gradientUnits="userSpaceOnUse">
<stop stop-color="#F61000"/>
<stop offset="0.653846" stop-color="#F54D0D"/>
</linearGradient>
</defs>
</svg>
