<svg width="20" height="20" viewBox="0 0 20 20" fill="none" xmlns="http://www.w3.org/2000/svg">
<g clip-path="url(#clip0_71_5340)">
<path d="M18.3975 4.52071L15.2871 3.07959V13.6237L17.6095 8.53307H17.5681L18.8537 5.73375C19.0589 5.27268 18.8557 4.73226 18.3975 4.52071Z" fill="url(#paint0_linear_71_5340)"/>
<path d="M19.7041 11.4048L18.1075 9.58008L15.246 15.8838V16.1015L19.6523 12.2343C19.8939 12.0186 19.917 11.6488 19.7041 11.4048Z" fill="url(#paint1_linear_71_5340)"/>
<path d="M13.1001 0.000181478C13.1 0.000181478 13.0999 0.000181478 13.0998 0.000181478H1.35299C0.694521 -0.00555325 0.156088 0.523548 0.150305 1.18202C0.150256 1.18897 0.150256 1.19592 0.150305 1.20287V18.8283C0.161677 19.4827 0.698457 20.0056 1.35299 19.9998H13.0998C13.7582 20.0113 14.3012 19.4869 14.3127 18.8285C14.3129 18.818 14.3129 18.8076 14.3128 18.7972V1.17177C14.3015 0.513342 13.7586 -0.0111908 13.1001 0.000181478ZM3.59245 2.68544C3.56888 2.72058 3.53681 2.74911 3.49914 2.7684L2.90817 3.50454C2.79197 3.62117 2.63709 3.69125 2.47272 3.70151C2.30972 3.6861 2.15649 3.6168 2.03727 3.50454L1.3841 2.7477C1.35761 2.72272 1.33948 2.69011 1.33224 2.65439C1.21419 2.50776 1.15179 2.32415 1.15597 2.13598C1.17842 1.63035 1.60396 1.23713 2.10983 1.25473C2.22909 1.25682 2.34753 1.27421 2.46232 1.30658C2.96557 1.11573 3.5283 1.36898 3.71915 1.87228C3.75128 1.95699 3.77144 2.04578 3.77903 2.13603C3.77684 2.33431 3.71147 2.52677 3.59245 2.68544ZM10.1657 10.0155L10.0827 10.1192L7.90545 12.7216C7.74624 12.8976 7.52074 12.9991 7.28338 13.0015C7.04427 13.0074 6.81542 12.9044 6.66131 12.7216L4.4115 10.0881H4.35964C4.08301 9.75723 3.93571 9.33733 3.94494 8.90616C3.97833 7.80728 4.89623 6.94352 5.99511 6.97691C6.00293 6.97715 6.01071 6.97745 6.01853 6.97774C6.44815 6.97754 6.86892 7.09982 7.23157 7.33023C7.58819 7.09511 8.00712 6.97229 8.43426 6.97774C9.52668 6.92549 10.4546 7.76874 10.5068 8.86121C10.5072 8.86927 10.5076 8.87739 10.5079 8.88546C10.5288 9.29048 10.4078 9.69017 10.1657 10.0155ZM13.162 17.7292L12.4674 18.5379C12.3482 18.6502 12.1949 18.7195 12.0319 18.7349C11.8695 18.7173 11.717 18.6482 11.5965 18.5379L10.933 17.7707V17.7188C10.8215 17.5608 10.7601 17.373 10.7567 17.1797C10.7735 16.6704 11.2001 16.2712 11.7095 16.2881C11.7098 16.2881 11.7102 16.2881 11.7105 16.2881C11.8274 16.2711 11.9461 16.2711 12.063 16.2881C12.5665 16.0977 13.129 16.3514 13.3194 16.8549C13.3525 16.9425 13.3728 17.0345 13.3797 17.1279C13.3655 17.3492 13.2737 17.5585 13.1206 17.7189L13.162 17.7292Z" fill="#EAEAEA"/>
</g>
<defs>
<linearGradient id="paint0_linear_71_5340" x1="17.1104" y1="3.07959" x2="17.1104" y2="13.6237" gradientUnits="userSpaceOnUse">
<stop stop-color="#F61000"/>
<stop offset="0.653846" stop-color="#F54D0D"/>
</linearGradient>
<linearGradient id="paint1_linear_71_5340" x1="17.5479" y1="9.58008" x2="17.5479" y2="16.1015" gradientUnits="userSpaceOnUse">
<stop stop-color="#F61000"/>
<stop offset="0.653846" stop-color="#F54D0D"/>
</linearGradient>
<clipPath id="clip0_71_5340">
<rect width="20" height="20" fill="white"/>
</clipPath>
</defs>
</svg>
