<svg width="20" height="20" viewBox="0 0 20 20" fill="none" xmlns="http://www.w3.org/2000/svg">
<path fill-rule="evenodd" clip-rule="evenodd" d="M13.3085 5.84771C13.6764 5.94619 13.983 6.18044 14.1717 6.50736C14.5359 7.13818 14.3593 7.93513 13.7874 8.35861L12.376 5.91455C12.6683 5.78779 12.9937 5.76333 13.3085 5.84767V5.84771ZM4.51051 15.0781L6.48004 13.9411L3.88531 9.4531L1.91859 10.5888C1.32203 10.9332 0.894375 11.4925 0.714727 12.1635C0.534688 12.8346 0.625274 13.5328 0.969688 14.1292C1.44949 14.9598 2.3225 15.4248 3.21902 15.4248C3.65836 15.4248 4.10336 15.3131 4.51051 15.0781ZM8.61941 17.6527L6.96547 14.7883L5.42172 15.6795L7.07527 18.5441C7.32141 18.9697 7.8675 19.116 8.29328 18.8703C8.49797 18.752 8.64484 18.5596 8.70699 18.3287C8.76875 18.0977 8.7377 17.8577 8.61941 17.6527V17.6527ZM14.7698 12.0134L9.70223 3.23646C9.59676 3.05341 9.42332 2.95306 9.21356 2.95306C9.20961 2.95306 9.20547 2.95326 9.20152 2.95326C8.98629 2.9572 8.81211 3.06416 8.71117 3.25455C8.53305 3.59068 8.36129 3.94939 8.17957 4.32923C7.41484 5.92646 6.55504 7.72201 4.72297 8.95033L7.33387 13.4673C9.31168 12.4964 11.2961 12.6493 13.0607 12.7856C13.4812 12.8182 13.878 12.8487 14.2586 12.8627C14.4742 12.871 14.6535 12.7734 14.7644 12.5889C14.8757 12.4043 14.8774 12.1998 14.7699 12.0134L14.7698 12.0134ZM13.4959 3.00146C13.3612 3.23498 13.4412 3.53361 13.6748 3.66845C13.7514 3.7129 13.8354 3.734 13.9182 3.734C14.087 3.734 14.2514 3.64642 14.3416 3.48978L15.3504 1.74322C15.485 1.5097 15.405 1.21107 15.1714 1.07623C14.9377 0.94142 14.6393 1.02142 14.5046 1.25494L13.4959 3.00146ZM19.3756 8.35697C19.3756 8.08752 19.1572 7.86869 18.886 7.86869L16.8698 7.86888C16.6004 7.86888 16.3815 8.08751 16.3815 8.35716C16.3815 8.62681 16.6004 8.84544 16.8698 8.84544L18.886 8.84525C19.1572 8.84525 19.3756 8.62681 19.3756 8.35697ZM18.2081 4.17689C18.0725 3.94337 17.775 3.86337 17.5415 3.99818L15.7522 5.03087C15.5185 5.16591 15.4385 5.46435 15.5733 5.69806C15.6639 5.85474 15.8279 5.94232 15.9966 5.94232C16.0795 5.94232 16.1634 5.92103 16.2405 5.87677L18.0292 4.84388C18.2627 4.70904 18.3437 4.4104 18.2081 4.17689Z" fill="#D9D9D9"/>
</svg>
