<svg width="20" height="20" viewBox="0 0 20 20" fill="none" xmlns="http://www.w3.org/2000/svg">
<g opacity="0.9">
<path d="M11.4577 13.2274L10.4992 10.7246C10.1296 10.8132 9.74305 10.8024 9.37891 10.6934L8.28516 13.1412C9.30317 13.5243 10.4203 13.5547 11.4577 13.2274Z" fill="#D9D9D9"/>
<path d="M12.2832 4.19531L11.1895 6.6425C11.5112 6.84352 11.7765 7.12313 11.9604 7.455L14.4635 6.4975C14.0134 5.50871 13.2461 4.69849 12.2832 4.19531Z" fill="#D9D9D9"/>
<path d="M14.6867 7.08154L12.1836 8.03904C12.2686 8.40906 12.2578 8.79465 12.1523 9.15936L14.5998 10.2531C14.9828 9.23541 15.0134 8.11867 14.6867 7.08154Z" fill="#D9D9D9"/>
<path d="M10.2491 4.36029C10.22 4.39863 10.1824 4.42971 10.1392 4.45111C10.0961 4.4725 10.0486 4.48364 10.0004 4.48364C9.95223 4.48364 9.90472 4.4725 9.86156 4.45111C9.81841 4.42971 9.78079 4.39863 9.75164 4.36029L9.23414 3.68436C8.99935 3.72449 8.76773 3.7813 8.54102 3.85436L9.49789 6.35436C9.8679 6.2692 10.2535 6.27996 10.6182 6.38561L11.7138 3.93311C11.4069 3.81764 11.089 3.73387 10.7651 3.68311L10.2491 4.36029Z" fill="#D9D9D9"/>
<path d="M8.48874 9.11836C8.58379 9.36704 8.7387 9.58845 8.93975 9.76296C9.14081 9.93746 9.3818 10.0597 9.64138 10.1188C9.90096 10.1779 10.1711 10.1721 10.4279 10.1019C10.6847 10.0316 10.9202 9.89913 11.1136 9.71612C11.3069 9.53312 11.4521 9.30525 11.5364 9.0527C11.6206 8.80015 11.6413 8.53073 11.5965 8.26829C11.5518 8.00586 11.443 7.75851 11.2798 7.54817C11.1166 7.33783 10.904 7.17099 10.6609 7.06242C10.3686 6.93196 10.0442 6.89109 9.72874 6.94498C9.41323 6.99888 9.12079 7.14512 8.88838 7.36521C8.65598 7.5853 8.49406 7.86936 8.4231 8.18147C8.35213 8.49358 8.3753 8.81973 8.48968 9.11867L8.48874 9.11836ZM10.0006 7.29867C10.2462 7.29861 10.4863 7.37138 10.6905 7.50778C10.8947 7.64418 11.0539 7.83809 11.1479 8.06497C11.2419 8.29184 11.2665 8.54151 11.2187 8.78238C11.1708 9.02324 11.0525 9.2445 10.8788 9.41815C10.7052 9.59181 10.4839 9.71006 10.2431 9.75796C10.0022 9.80585 9.75254 9.78124 9.52566 9.68723C9.29878 9.59322 9.10488 9.43404 8.96848 9.22982C8.83208 9.02559 8.75931 8.78551 8.75937 8.53992C8.75978 8.21085 8.89069 7.89537 9.12338 7.66268C9.35607 7.42999 9.67155 7.29909 10.0006 7.29867Z" fill="#D9D9D9"/>
<path d="M9.99906 9.15598C10.121 9.15604 10.2403 9.11993 10.3417 9.05222C10.4431 8.98451 10.5222 8.88824 10.5689 8.77558C10.6156 8.66292 10.6279 8.53894 10.6041 8.41932C10.5804 8.2997 10.5217 8.18981 10.4355 8.10355C10.3492 8.01729 10.2394 7.95854 10.1198 7.93472C10.0002 7.91091 9.87618 7.9231 9.7635 7.96975C9.65082 8.01641 9.55451 8.09544 9.48674 8.19684C9.41898 8.29824 9.38281 8.41746 9.38281 8.53941C9.38298 8.70283 9.44795 8.85951 9.56347 8.9751C9.679 9.09068 9.83564 9.15573 9.99906 9.15598Z" fill="#D9D9D9"/>
<path d="M12.0745 17.8906H11.2573H11.2545H8.74266H8.73984H7.92266C7.66635 17.8911 7.41722 17.9753 7.21326 18.1305C7.0093 18.2857 6.8617 18.5034 6.79297 18.7503H13.2042C13.1355 18.5034 12.9879 18.2857 12.7839 18.1305C12.58 17.9753 12.3308 17.8911 12.0745 17.8906Z" fill="#D9D9D9"/>
<path d="M8.16211 1.25L8.42711 1.59688L8.43117 1.60094L9.61867 3.15656L9.6218 3.15969L9.9993 3.65625L10.3768 3.16062C10.3787 3.15844 10.3812 3.15687 10.383 3.15437L11.8384 1.25H8.16211Z" fill="#D9D9D9"/>
<path d="M11.9378 2.1499L11.1878 3.13084C11.5549 3.21098 11.9128 3.32857 12.2559 3.48178H12.2584H12.26C12.9243 3.77734 13.5236 4.2013 14.0234 4.72929C14.5232 5.25729 14.9137 5.87888 15.1725 6.55834C15.4345 7.23698 15.5591 7.96087 15.5393 8.68805C15.5194 9.41523 15.3555 10.1312 15.0569 10.7946V10.7968C14.7613 11.4612 14.3373 12.0605 13.8093 12.5604C13.2812 13.0603 12.6596 13.4509 11.98 13.7096C11.3016 13.9715 10.578 14.0961 9.85109 14.0763C9.12419 14.0565 8.40844 13.8927 7.74531 13.5943H7.74187H7.73968C7.07541 13.2989 6.47614 12.875 5.97634 12.347C5.47655 11.8191 5.08611 11.1975 4.82749 10.518C4.56554 9.83943 4.44087 9.1156 4.46072 8.38847C4.48057 7.66134 4.64454 6.94538 4.94312 6.28209V6.28115C5.23865 5.61678 5.66264 5.0174 6.19069 4.5175C6.71874 4.0176 7.34044 3.62706 8.01999 3.36834C8.27836 3.2713 8.5433 3.19277 8.81281 3.13334L8.06281 2.15021C7.90656 2.1974 7.75843 2.24771 7.61281 2.30303C6.37937 2.77522 5.31365 3.60254 4.55038 4.68038C3.78712 5.75822 3.36059 7.03818 3.32473 8.35842C3.28887 9.67866 3.64528 10.9799 4.34891 12.0976C5.05254 13.2153 6.07178 14.0992 7.27776 14.6377C8.48374 15.1761 9.8223 15.3449 11.1242 15.1226C12.4261 14.9004 13.6328 14.2971 14.5919 13.389C15.5509 12.481 16.2192 11.309 16.5121 10.0211C16.8051 8.73331 16.7096 7.38753 16.2378 6.15396C15.8715 5.20426 15.294 4.35027 14.5491 3.65659C13.8041 2.96291 12.9112 2.44769 11.9378 2.1499Z" fill="#D9D9D9"/>
<path d="M9.9982 15.847C9.68328 15.8462 9.36875 15.8247 9.05664 15.7827V17.2652H10.9435V15.7773C10.6303 15.8213 10.3145 15.8445 9.9982 15.847Z" fill="#D9D9D9"/>
<path d="M5.65625 6.25715L8.10344 7.3509C8.30416 7.02888 8.58384 6.76351 8.91594 6.57996L7.95875 4.07715C6.96961 4.5267 6.15915 5.29404 5.65625 6.25715Z" fill="#D9D9D9"/>
<path d="M14.3438 10.8232L11.8966 9.72949C11.6958 10.0514 11.4161 10.3168 11.0841 10.5004L12.0413 13.0032C13.0303 12.5534 13.8407 11.7862 14.3438 10.8232Z" fill="#D9D9D9"/>
<path d="M7.71648 12.8853L8.81211 10.4375C8.48977 10.2369 8.22407 9.9572 8.04023 9.625L5.53711 10.5825C5.98669 11.5715 6.75373 12.382 7.71648 12.8853Z" fill="#D9D9D9"/>
<path d="M5.31253 9.99986L7.81566 9.04268C7.73066 8.67265 7.74141 8.28707 7.84691 7.92236L5.39941 6.82861C5.01642 7.8462 4.98583 8.96284 5.31253 9.99986Z" fill="#D9D9D9"/>
</g>
</svg>
