<svg width="20" height="20" viewBox="0 0 20 20" fill="none" xmlns="http://www.w3.org/2000/svg">
<path d="M1.83333 5.66667H11.8333C12.0543 5.66667 12.2663 5.57887 12.4226 5.42259C12.5789 5.26631 12.6667 5.05435 12.6667 4.83333C12.6667 4.61232 12.5789 4.40036 12.4226 4.24408C12.2663 4.0878 12.0543 4 11.8333 4H1.83333C1.61232 4 1.40036 4.0878 1.24408 4.24408C1.0878 4.40036 1 4.61232 1 4.83333C1 5.05435 1.0878 5.26631 1.24408 5.42259C1.40036 5.57887 1.61232 5.66667 1.83333 5.66667Z" fill="#EAEAEA"/>
<path d="M14.166 4.5C14.166 4.00555 14.3126 3.5222 14.5873 3.11108C14.862 2.69995 15.2525 2.37952 15.7093 2.1903C16.1661 2.00108 16.6688 1.95157 17.1537 2.04804C17.6387 2.1445 18.0842 2.3826 18.4338 2.73223C18.7834 3.08187 19.0215 3.52732 19.118 4.01228C19.2144 4.49723 19.1649 4.99989 18.9757 5.45671C18.7865 5.91353 18.4661 6.30397 18.0549 6.57868C17.6438 6.85338 17.1605 7 16.666 7C16.003 7 15.3671 6.73661 14.8982 6.26777C14.4294 5.79893 14.166 5.16304 14.166 4.5Z" fill="url(#paint0_linear_71_3704)"/>
<path d="M6.66732 8.00001C6.15153 8.00146 5.64882 8.16241 5.2281 8.46079C4.80738 8.75918 4.48925 9.18038 4.31732 9.66668H1.66732C1.4463 9.66668 1.23434 9.75447 1.07806 9.91075C0.921782 10.067 0.833984 10.279 0.833984 10.5C0.833984 10.721 0.921782 10.933 1.07806 11.0893C1.23434 11.2455 1.4463 11.3333 1.66732 11.3333H4.31732C4.4702 11.7657 4.73907 12.1478 5.09452 12.4376C5.44997 12.7274 5.8783 12.9138 6.33262 12.9765C6.78694 13.0392 7.24976 12.9757 7.67041 12.793C8.09106 12.6103 8.45334 12.3153 8.71761 11.9405C8.98187 11.5657 9.13793 11.1254 9.1687 10.6678C9.19948 10.2102 9.10378 9.75292 8.8921 9.34607C8.68041 8.93922 8.36088 8.59844 7.96848 8.36103C7.57609 8.12362 7.12594 7.99872 6.66732 8.00001Z" fill="url(#paint1_linear_71_3704)"/>
<path d="M18.334 9H11.6673C11.4463 9 11.2343 9.0878 11.0781 9.24408C10.9218 9.40036 10.834 9.61232 10.834 9.83333C10.834 10.0543 10.9218 10.2663 11.0781 10.4226C11.2343 10.5789 11.4463 10.6667 11.6673 10.6667H18.334C18.555 10.6667 18.767 10.5789 18.9232 10.4226C19.0795 10.2663 19.1673 10.0543 19.1673 9.83333C19.1673 9.61232 19.0795 9.40036 18.9232 9.24408C18.767 9.0878 18.555 9 18.334 9Z" fill="#EAEAEA"/>
<path d="M8.33398 15H1.66732C1.4463 15 1.23434 15.0878 1.07806 15.2441C0.921782 15.4004 0.833984 15.6123 0.833984 15.8333C0.833984 16.0543 0.921782 16.2663 1.07806 16.4226C1.23434 16.5789 1.4463 16.6667 1.66732 16.6667H8.33398C8.555 16.6667 8.76696 16.5789 8.92324 16.4226C9.07952 16.2663 9.16732 16.0543 9.16732 15.8333C9.16732 15.6123 9.07952 15.4004 8.92324 15.2441C8.76696 15.0878 8.555 15 8.33398 15Z" fill="#EAEAEA"/>
<path d="M18.3332 14.6667H15.6832C15.4866 14.1107 15.0998 13.642 14.5911 13.3436C14.0825 13.0452 13.4847 12.9363 12.9034 13.036C12.3222 13.1357 11.7949 13.4377 11.4148 13.8886C11.0347 14.3395 10.8262 14.9103 10.8262 15.5C10.8262 16.0897 11.0347 16.6605 11.4148 17.1114C11.7949 17.5623 12.3222 17.8643 12.9034 17.964C13.4847 18.0637 14.0825 17.9548 14.5911 17.6564C15.0998 17.358 15.4866 16.8894 15.6832 16.3333H18.3332C18.5542 16.3333 18.7662 16.2455 18.9225 16.0893C19.0787 15.933 19.1665 15.721 19.1665 15.5C19.1665 15.279 19.0787 15.067 18.9225 14.9107C18.7662 14.7545 18.5542 14.6667 18.3332 14.6667Z" fill="url(#paint2_linear_71_3704)"/>
<defs>
<linearGradient id="paint0_linear_71_3704" x1="16.666" y1="2" x2="16.666" y2="7" gradientUnits="userSpaceOnUse">
<stop stop-color="#F61000"/>
<stop offset="1" stop-color="#F54D0D"/>
</linearGradient>
<linearGradient id="paint1_linear_71_3704" x1="5.00416" y1="8" x2="5.00416" y2="13" gradientUnits="userSpaceOnUse">
<stop stop-color="#F61000"/>
<stop offset="1" stop-color="#F54D0D"/>
</linearGradient>
<linearGradient id="paint2_linear_71_3704" x1="14.9963" y1="13" x2="14.9963" y2="18" gradientUnits="userSpaceOnUse">
<stop stop-color="#F61000"/>
<stop offset="1" stop-color="#F54D0D"/>
</linearGradient>
</defs>
</svg>
