<svg width="14" height="14" viewBox="0 0 14 14" fill="none" xmlns="http://www.w3.org/2000/svg">
<g clip-path="url(#clip0_71_3742)">
<path fill-rule="evenodd" clip-rule="evenodd" d="M12.537 8.56761C12.0734 10.8383 9.49532 11.7729 7.7204 10.3326C7.50722 10.1591 7.31634 9.96325 7.14777 9.7451C7.6857 10.997 8.43682 11.8572 9.50771 12.2538V12.9107H4.07638V12.2538C5.14727 11.8572 5.90087 10.9994 6.43632 9.7451C6.26775 9.96325 6.07687 10.1591 5.86369 10.3326C4.09125 11.7729 1.51316 10.8383 1.0496 8.56761C0.96036 8.16106 0.970276 7.73717 1.07687 7.3331C1.28758 6.54976 2.00895 5.7565 2.7799 5.0277C3.14678 4.68312 3.50126 4.36086 3.84831 4.03612C4.88451 3.06934 6.03969 1.91664 6.79328 0.714355C7.54688 1.91664 8.70206 3.06934 9.73825 4.03612C10.0853 4.36086 10.4398 4.68312 10.8067 5.0277C11.5751 5.7565 12.2965 6.54976 12.5097 7.3331C12.6163 7.73717 12.6262 8.16106 12.537 8.56761Z" fill="white"/>
<path fill-rule="evenodd" clip-rule="evenodd" d="M12.537 8.56761C12.0734 10.8383 9.49532 11.7729 7.7204 10.3326C7.50722 10.1591 7.31634 9.96325 7.14777 9.7451C7.6857 10.997 8.43682 11.8572 9.50771 12.2538V12.9107H4.07638V12.2538C5.14727 11.8572 5.90087 10.9994 6.43632 9.7451C6.26775 9.96325 6.07687 10.1591 5.86369 10.3326C4.09125 11.7729 1.51316 10.8383 1.0496 8.56761C0.96036 8.16106 0.970276 7.73717 1.07687 7.3331C1.28758 6.54976 2.00895 5.7565 2.7799 5.0277C3.14678 4.68312 3.50126 4.36086 3.84831 4.03612C4.88451 3.06934 6.03969 1.91664 6.79328 0.714355C7.54688 1.91664 8.70206 3.06934 9.73825 4.03612C10.0853 4.36086 10.4398 4.68312 10.8067 5.0277C11.5751 5.7565 12.2965 6.54976 12.5097 7.3331C12.6163 7.73717 12.6262 8.16106 12.537 8.56761Z" fill="url(#paint0_linear_71_3742)"/>
</g>
<defs>
<linearGradient id="paint0_linear_71_3742" x1="6.79328" y1="0.714355" x2="6.79328" y2="12.9107" gradientUnits="userSpaceOnUse">
<stop stop-color="#F61000"/>
<stop offset="0.653846" stop-color="#F54D0D"/>
</linearGradient>
<clipPath id="clip0_71_3742">
<rect width="12.6921" height="12.6921" fill="white" transform="translate(0.443237 0.466309)"/>
</clipPath>
</defs>
</svg>
