<svg width="1153" height="332" viewBox="0 0 1153 332" fill="none" xmlns="http://www.w3.org/2000/svg">
<path d="M322.486 0.839355H830.514C897.549 0.839461 960.02 34.7949 996.48 91.0474C1063.44 194.363 989.291 330.793 866.172 330.793H286.828C163.709 330.793 89.5558 194.363 156.52 91.0474C192.98 34.7949 255.452 0.839477 322.486 0.839355Z" stroke="#835A45" stroke-opacity="0.2" stroke-width="1.2266"/>
<path d="M155.976 90.7589C192.567 34.3038 255.264 0.226074 322.54 0.226074H830.46C897.736 0.226074 960.433 34.3038 997.024 90.759C1064.24 194.463 989.807 331.407 866.225 331.407H286.775C163.193 331.407 88.7598 194.463 155.976 90.7589Z" fill="url(#paint0_radial_3210_16276)"/>
<path d="M322.54 12.1851H830.46C893.683 12.1851 952.603 44.2096 986.989 97.2632C1049.05 193.011 980.325 319.447 866.226 319.448H286.775C172.675 319.448 103.953 193.011 166.012 97.2632C200.398 44.2099 259.317 12.1851 322.54 12.1851Z" stroke="url(#paint1_linear_3210_16276)" stroke-width="23.9186"/>
<g filter="url(#filter0_f_3210_16276)">
<path d="M390.059 295.824L355.906 287.011L321.753 295.824L390.059 295.824Z" fill="#FC9932"/>
</g>
<g filter="url(#filter1_f_3210_16276)">
<path d="M378.498 294.135L362.505 290.015C358.349 288.944 353.989 288.944 349.832 290.015L333.839 294.135L378.498 294.135Z" fill="white"/>
</g>
<g filter="url(#filter2_f_3210_16276)">
<path d="M794.834 295.824L760.681 287.011L726.529 295.824L794.834 295.824Z" fill="#FC9932"/>
</g>
<g filter="url(#filter3_f_3210_16276)">
<path d="M783.273 294.135L767.28 290.015C763.124 288.944 758.764 288.944 754.608 290.015L738.615 294.135L783.273 294.135Z" fill="white"/>
</g>
<g filter="url(#filter4_f_3210_16276)">
<path d="M726.758 38.6251L760.91 47.4387L795.063 38.6251L726.758 38.6251Z" fill="#FC9932"/>
</g>
<g filter="url(#filter5_f_3210_16276)">
<path d="M738.318 40.3147L754.311 44.4346C758.468 45.5054 762.828 45.5054 766.984 44.4346L782.977 40.3147L738.318 40.3147Z" fill="white"/>
</g>
<g filter="url(#filter6_f_3210_16276)">
<path d="M321.982 38.6251L356.135 47.4387L390.288 38.6251L321.982 38.6251Z" fill="#FC9932"/>
</g>
<g filter="url(#filter7_f_3210_16276)">
<path d="M333.543 40.3148L349.536 44.4347C353.692 45.5054 358.052 45.5054 362.209 44.4347L378.202 40.3148L333.543 40.3148Z" fill="white"/>
</g>
<g filter="url(#filter8_f_3210_16276)">
<path d="M987.025 140.432L978.211 174.584L987.025 208.737L987.025 140.432Z" fill="#FC9932"/>
</g>
<g filter="url(#filter9_f_3210_16276)">
<path d="M985.334 151.993L981.214 167.986C980.144 172.142 980.144 176.502 981.214 180.659L985.334 196.652L985.334 151.993Z" fill="white"/>
</g>
<g filter="url(#filter10_f_3210_16276)">
<path d="M165.897 208.737L174.711 174.584L165.897 140.432L165.897 208.737Z" fill="#FC9932"/>
</g>
<g filter="url(#filter11_f_3210_16276)">
<path d="M167.588 197.176L171.708 181.183C172.778 177.026 172.778 172.666 171.708 168.51L167.588 152.517L167.588 197.176Z" fill="white"/>
</g>
<path d="M322.54 19.0854H830.46C891.344 19.0855 948.085 49.9249 981.199 101.016C1040.28 192.173 974.855 312.548 866.226 312.548H286.775C178.146 312.548 112.718 192.173 171.801 101.016C204.915 49.9249 261.656 19.0855 322.54 19.0854Z" stroke="black" stroke-width="37.7178"/>
<path d="M322.54 18.6255H830.46C891.5 18.6256 948.386 49.5441 981.585 100.766C1040.87 192.229 975.22 313.008 866.226 313.008H286.775C177.781 313.008 112.134 192.229 171.415 100.766C204.614 49.5441 261.5 18.6256 322.54 18.6255Z" stroke="url(#paint2_linear_3210_16276)" stroke-width="36.7979"/>
<path d="M322.486 9.42529H830.514C894.638 9.4254 954.398 41.907 989.275 95.7173C1052.54 193.32 982.483 322.207 866.172 322.208H286.828C170.517 322.207 100.463 193.32 163.725 95.7173C198.602 41.907 258.362 9.42541 322.486 9.42529Z" stroke="#1C1815" stroke-width="18.3989"/>
<path d="M353.323 48.9834H799.371C867.42 48.9835 914.74 67.5221 946.621 112.675V112.676C973.424 152.108 973.637 196.174 952.642 229.454C931.646 262.733 889.329 285.394 830.736 281.731L830.708 281.729H321.992L321.971 281.731C265.699 284.477 222.324 260.35 200.338 226.524C178.361 192.713 177.697 149.146 206.949 112.735C238.869 73.0042 285.336 48.9834 353.323 48.9834Z" stroke="url(#paint3_linear_3210_16276)" stroke-width="1.83989"/>
<path d="M353.323 48.9834H799.371C867.42 48.9835 914.74 67.5221 946.621 112.675V112.676C973.424 152.108 973.637 196.174 952.642 229.454C931.646 262.733 889.329 285.394 830.736 281.731L830.708 281.729H321.992L321.971 281.731C265.699 284.477 222.324 260.35 200.338 226.524C178.361 192.713 177.697 149.146 206.949 112.735C238.869 73.0042 285.336 48.9834 353.323 48.9834Z" stroke="url(#paint4_linear_3210_16276)" stroke-width="1.83989"/>
<path d="M322.486 4.2124H830.514C896.405 4.21251 957.812 37.5892 993.65 92.8823C1059.16 193.954 986.616 327.42 866.172 327.42H286.828C166.384 327.42 93.8407 193.954 159.35 92.8823C195.188 37.5892 256.595 4.21252 322.486 4.2124Z" stroke="url(#paint5_linear_3210_16276)" stroke-width="7.97287"/>
<defs>
<filter id="filter0_f_3210_16276" x="311.594" y="276.851" width="88.625" height="29.1339" filterUnits="userSpaceOnUse" color-interpolation-filters="sRGB">
<feFlood flood-opacity="0" result="BackgroundImageFix"/>
<feBlend mode="normal" in="SourceGraphic" in2="BackgroundImageFix" result="shape"/>
<feGaussianBlur stdDeviation="5.08007" result="effect1_foregroundBlur_3210_16276"/>
</filter>
<filter id="filter1_f_3210_16276" x="330.453" y="285.825" width="51.4316" height="11.6964" filterUnits="userSpaceOnUse" color-interpolation-filters="sRGB">
<feFlood flood-opacity="0" result="BackgroundImageFix"/>
<feBlend mode="normal" in="SourceGraphic" in2="BackgroundImageFix" result="shape"/>
<feGaussianBlur stdDeviation="1.69336" result="effect1_foregroundBlur_3210_16276"/>
</filter>
<filter id="filter2_f_3210_16276" x="716.369" y="276.851" width="88.625" height="29.1339" filterUnits="userSpaceOnUse" color-interpolation-filters="sRGB">
<feFlood flood-opacity="0" result="BackgroundImageFix"/>
<feBlend mode="normal" in="SourceGraphic" in2="BackgroundImageFix" result="shape"/>
<feGaussianBlur stdDeviation="5.08007" result="effect1_foregroundBlur_3210_16276"/>
</filter>
<filter id="filter3_f_3210_16276" x="735.229" y="285.825" width="51.4316" height="11.6964" filterUnits="userSpaceOnUse" color-interpolation-filters="sRGB">
<feFlood flood-opacity="0" result="BackgroundImageFix"/>
<feBlend mode="normal" in="SourceGraphic" in2="BackgroundImageFix" result="shape"/>
<feGaussianBlur stdDeviation="1.69336" result="effect1_foregroundBlur_3210_16276"/>
</filter>
<filter id="filter4_f_3210_16276" x="716.598" y="28.465" width="88.625" height="29.1339" filterUnits="userSpaceOnUse" color-interpolation-filters="sRGB">
<feFlood flood-opacity="0" result="BackgroundImageFix"/>
<feBlend mode="normal" in="SourceGraphic" in2="BackgroundImageFix" result="shape"/>
<feGaussianBlur stdDeviation="5.08007" result="effect1_foregroundBlur_3210_16276"/>
</filter>
<filter id="filter5_f_3210_16276" x="734.932" y="36.928" width="51.4316" height="11.6964" filterUnits="userSpaceOnUse" color-interpolation-filters="sRGB">
<feFlood flood-opacity="0" result="BackgroundImageFix"/>
<feBlend mode="normal" in="SourceGraphic" in2="BackgroundImageFix" result="shape"/>
<feGaussianBlur stdDeviation="1.69336" result="effect1_foregroundBlur_3210_16276"/>
</filter>
<filter id="filter6_f_3210_16276" x="311.822" y="28.465" width="88.625" height="29.1339" filterUnits="userSpaceOnUse" color-interpolation-filters="sRGB">
<feFlood flood-opacity="0" result="BackgroundImageFix"/>
<feBlend mode="normal" in="SourceGraphic" in2="BackgroundImageFix" result="shape"/>
<feGaussianBlur stdDeviation="5.08007" result="effect1_foregroundBlur_3210_16276"/>
</filter>
<filter id="filter7_f_3210_16276" x="330.156" y="36.928" width="51.4316" height="11.6964" filterUnits="userSpaceOnUse" color-interpolation-filters="sRGB">
<feFlood flood-opacity="0" result="BackgroundImageFix"/>
<feBlend mode="normal" in="SourceGraphic" in2="BackgroundImageFix" result="shape"/>
<feGaussianBlur stdDeviation="1.69336" result="effect1_foregroundBlur_3210_16276"/>
</filter>
<filter id="filter8_f_3210_16276" x="968.051" y="130.272" width="29.1347" height="88.6255" filterUnits="userSpaceOnUse" color-interpolation-filters="sRGB">
<feFlood flood-opacity="0" result="BackgroundImageFix"/>
<feBlend mode="normal" in="SourceGraphic" in2="BackgroundImageFix" result="shape"/>
<feGaussianBlur stdDeviation="5.08007" result="effect1_foregroundBlur_3210_16276"/>
</filter>
<filter id="filter9_f_3210_16276" x="977.025" y="148.606" width="11.6953" height="51.4323" filterUnits="userSpaceOnUse" color-interpolation-filters="sRGB">
<feFlood flood-opacity="0" result="BackgroundImageFix"/>
<feBlend mode="normal" in="SourceGraphic" in2="BackgroundImageFix" result="shape"/>
<feGaussianBlur stdDeviation="1.69336" result="effect1_foregroundBlur_3210_16276"/>
</filter>
<filter id="filter10_f_3210_16276" x="155.736" y="130.272" width="29.1347" height="88.6255" filterUnits="userSpaceOnUse" color-interpolation-filters="sRGB">
<feFlood flood-opacity="0" result="BackgroundImageFix"/>
<feBlend mode="normal" in="SourceGraphic" in2="BackgroundImageFix" result="shape"/>
<feGaussianBlur stdDeviation="5.08007" result="effect1_foregroundBlur_3210_16276"/>
</filter>
<filter id="filter11_f_3210_16276" x="164.201" y="149.13" width="11.6953" height="51.4323" filterUnits="userSpaceOnUse" color-interpolation-filters="sRGB">
<feFlood flood-opacity="0" result="BackgroundImageFix"/>
<feBlend mode="normal" in="SourceGraphic" in2="BackgroundImageFix" result="shape"/>
<feGaussianBlur stdDeviation="1.69336" result="effect1_foregroundBlur_3210_16276"/>
</filter>
<radialGradient id="paint0_radial_3210_16276" cx="0" cy="0" r="1" gradientUnits="userSpaceOnUse" gradientTransform="translate(576.506 165.016) scale(422.886 285.964)">
<stop stop-color="#800000"/>
<stop offset="1" stop-color="#530000"/>
</radialGradient>
<linearGradient id="paint1_linear_3210_16276" x1="-464.113" y1="72.9019" x2="1287.01" y2="-296.457" gradientUnits="userSpaceOnUse">
<stop offset="0.369077" stop-color="#F61000"/>
<stop offset="0.529422" stop-color="#F61000" stop-opacity="0"/>
<stop offset="1" stop-color="#F61000"/>
</linearGradient>
<linearGradient id="paint2_linear_3210_16276" x1="1153" y1="165.817" x2="0" y2="165.817" gradientUnits="userSpaceOnUse">
<stop stop-color="#4A4A4A"/>
<stop offset="1"/>
</linearGradient>
<linearGradient id="paint3_linear_3210_16276" x1="577.087" y1="48.0635" x2="577.087" y2="283.019" gradientUnits="userSpaceOnUse">
<stop stop-color="#2BA85E"/>
<stop offset="1" stop-color="#61DA92"/>
</linearGradient>
<linearGradient id="paint4_linear_3210_16276" x1="577.006" y1="48.0635" x2="577.006" y2="283.019" gradientUnits="userSpaceOnUse">
<stop stop-color="#A82B2B"/>
<stop offset="1" stop-color="#F00000"/>
</linearGradient>
<linearGradient id="paint5_linear_3210_16276" x1="576.807" y1="530.115" x2="589.164" y2="-43.6652" gradientUnits="userSpaceOnUse">
<stop/>
<stop offset="0.501394" stop-color="#2C231F" stop-opacity="0"/>
<stop offset="1"/>
</linearGradient>
</defs>
</svg>
