<svg width="14" height="13" viewBox="0 0 14 13" fill="none" xmlns="http://www.w3.org/2000/svg">
<g clip-path="url(#clip0_71_7556)">
<path d="M11.1927 3.88375L11.9591 3.11735L11.205 2.36295L10.3851 3.18282C9.63615 2.65204 8.76214 2.32492 7.84872 2.23349V1.14015H8.91539V0.0734863H5.71539V1.14015H6.78206V2.23349C5.86864 2.32492 4.99464 2.65204 4.24566 3.18282L3.42579 2.36295L2.67166 3.11735L3.43806 3.88375C2.72267 4.64119 2.2448 5.59158 2.06346 6.61755C1.88212 7.64352 2.00526 8.70014 2.41766 9.65691C2.83007 10.6137 3.51368 11.4287 4.38407 12.0014C5.25446 12.574 6.27352 12.8792 7.31539 12.8792C8.35726 12.8792 9.37632 12.574 10.2467 12.0014C11.1171 11.4287 11.8007 10.6137 12.2131 9.65691C12.6255 8.70014 12.7487 7.64352 12.5673 6.61755C12.386 5.59158 11.9081 4.64119 11.1927 3.88375ZM7.31539 11.8068C6.47152 11.8068 5.64661 11.5566 4.94496 11.0878C4.24331 10.6189 3.69644 9.95257 3.37351 9.17294C3.05057 8.3933 2.96608 7.53542 3.13071 6.70777C3.29534 5.88012 3.7017 5.11987 4.2984 4.52316C4.89511 3.92646 5.65535 3.5201 6.48301 3.35547C7.31066 3.19084 8.16854 3.27533 8.94817 3.59827C9.72781 3.9212 10.3942 4.46807 10.863 5.16972C11.3318 5.87137 11.5821 6.69629 11.5821 7.54015C11.5808 8.67135 11.1309 9.75586 10.331 10.5557C9.5311 11.3556 8.44659 11.8055 7.31539 11.8068Z" fill="#EAEAEA"/>
<path d="M7.31481 4.34009V7.54009H4.11481C4.11481 8.17299 4.30248 8.79168 4.6541 9.31791C5.00572 9.84415 5.5055 10.2543 6.09022 10.4965C6.67494 10.7387 7.31836 10.8021 7.9391 10.6786C8.55983 10.5551 9.13002 10.2504 9.57755 9.80283C10.0251 9.3553 10.3298 8.78512 10.4533 8.16438C10.5768 7.54364 10.5134 6.90022 10.2712 6.3155C10.029 5.73078 9.61887 5.23101 9.09263 4.87939C8.56639 4.52776 7.94771 4.34009 7.31481 4.34009Z" fill="#EAEAEA"/>
<path d="M7.31481 4.34009V7.54009H4.11481C4.11481 8.17299 4.30248 8.79168 4.6541 9.31791C5.00572 9.84415 5.5055 10.2543 6.09022 10.4965C6.67494 10.7387 7.31836 10.8021 7.9391 10.6786C8.55983 10.5551 9.13002 10.2504 9.57755 9.80283C10.0251 9.3553 10.3298 8.78512 10.4533 8.16438C10.5768 7.54364 10.5134 6.90022 10.2712 6.3155C10.029 5.73078 9.61887 5.23101 9.09263 4.87939C8.56639 4.52776 7.94771 4.34009 7.31481 4.34009Z" fill="url(#paint0_linear_71_7556)"/>
</g>
<defs>
<linearGradient id="paint0_linear_71_7556" x1="7.31481" y1="4.34009" x2="7.31481" y2="10.7401" gradientUnits="userSpaceOnUse">
<stop stop-color="#F61000"/>
<stop offset="0.653846" stop-color="#F54D0D"/>
</linearGradient>
<clipPath id="clip0_71_7556">
<rect width="12.8" height="12.8" fill="white" transform="translate(0.919067 0.0732422)"/>
</clipPath>
</defs>
</svg>
