<svg width="20" height="20" viewBox="0 0 20 20" fill="none" xmlns="http://www.w3.org/2000/svg">
<path d="M10 16.3332C8.61523 16.3332 7.44263 15.9908 6.66663 15.4258V16.3332C6.66663 17.2534 8.15843 18 10 18C11.8406 18 13.3334 17.2534 13.3334 16.3332V15.4258C12.5574 15.9908 11.3848 16.3332 10 16.3332Z" fill="#D9D9D9"/>
<path d="M10 13.6669C8.61523 13.6669 7.44263 13.3243 6.66663 12.7593V13.6669C6.66663 14.5867 8.15823 15.3335 10 15.3335C11.8406 15.3335 13.3334 14.5867 13.3334 13.6669V12.7593C12.5574 13.3243 11.3848 13.6669 10 13.6669Z" fill="#D9D9D9"/>
<path d="M10 10.9999C8.61523 10.9999 7.44263 10.6575 6.66663 10.0923V10.9999C6.66663 11.9199 8.15823 12.6667 10 12.6667C11.8406 12.6667 13.3334 11.9199 13.3334 10.9999V10.0923C12.5574 10.6575 11.3848 10.9999 10 10.9999Z" fill="#D9D9D9"/>
<path d="M10 8.33358C8.61523 8.33358 7.44263 7.99118 6.66663 7.42578V8.33358C6.66663 9.25358 8.15843 10.0002 10 10.0002C11.8406 10.0002 13.3334 9.25358 13.3334 8.33358V7.42578C12.5574 7.99118 11.3848 8.33358 10 8.33358Z" fill="#D9D9D9"/>
<path d="M13.3335 5.6666C13.3335 6.5866 11.8405 7.3332 10.0001 7.3332C8.15835 7.3332 6.66675 6.5866 6.66675 5.6666C6.66655 4.746 8.15835 4 9.99995 4C11.8405 4 13.3335 4.746 13.3335 5.6666Z" fill="#D9D9D9"/>
<path d="M5.66656 5.6667C5.66656 5.5593 5.67736 5.4545 5.69456 5.3517C5.57456 5.3453 5.45696 5.3335 5.33316 5.3335C3.49156 5.3335 1.99976 6.0795 1.99976 6.9999C1.99976 7.9201 3.49156 8.6669 5.33316 8.6669C5.44756 8.6669 5.55516 8.6557 5.66656 8.6499V5.6667Z" fill="#D9D9D9"/>
<path d="M5.6666 16.3331V14.9789C5.554 14.9837 5.4494 14.9999 5.3334 14.9999C3.9488 14.9999 2.776 14.6575 2 14.0923V14.9999C2 15.9199 3.4918 16.6665 5.3334 16.6665C5.4572 16.6665 5.5748 16.6547 5.6948 16.6483C5.6774 16.5455 5.6666 16.4405 5.6666 16.3331Z" fill="#D9D9D9"/>
<path d="M14.6668 14.3334C14.5508 14.3334 14.446 14.317 14.3336 14.3126V15.9832C14.445 15.9888 14.5528 16 14.6668 16C16.507 16 18 15.2534 18 14.3334V13.4258C17.2242 13.9908 16.0516 14.3334 14.6668 14.3334Z" fill="#D9D9D9"/>
<path d="M14.6668 2C13.1872 2 11.948 2.485 11.5118 3.1516C13.0408 3.4702 14.1012 4.2722 14.297 5.3144C14.42 5.3216 14.54 5.3334 14.667 5.3334C16.5072 5.3334 18.0002 4.5866 18.0002 3.6666C18 2.746 16.507 2 14.6668 2Z" fill="#D9D9D9"/>
<path d="M14.6668 9.00017C14.5508 9.00017 14.446 8.98397 14.3336 8.97937V10.65C14.445 10.6558 14.5528 10.6668 14.6668 10.6668C16.507 10.6668 18 9.92017 18 9.00017V8.09277C17.2242 8.65777 16.0516 9.00017 14.6668 9.00017Z" fill="#D9D9D9"/>
<path d="M14.6668 11.6665C14.5508 11.6665 14.446 11.6503 14.3336 11.6457V13.3165C14.445 13.3223 14.5528 13.3335 14.6668 13.3335C16.507 13.3335 18 12.5869 18 11.6667V10.7593C17.2242 11.3241 16.0516 11.6665 14.6668 11.6665Z" fill="#D9D9D9"/>
<path d="M14.6668 6.33338C14.5508 6.33338 14.446 6.31698 14.3336 6.31258V7.98338C14.445 7.98898 14.5528 7.99998 14.6668 7.99998C16.507 7.99998 18 7.25318 18 6.33338V5.42578C17.2242 5.99078 16.0516 6.33338 14.6668 6.33338Z" fill="#D9D9D9"/>
<path d="M5.66656 12.3124C5.55396 12.317 5.44916 12.3332 5.33316 12.3332C3.94856 12.3332 2.77596 11.9908 1.99976 11.4258V12.3332C1.99996 13.2532 3.49156 13.9998 5.33336 13.9998C5.44776 13.9998 5.55536 13.9886 5.66676 13.9828L5.66656 12.3124Z" fill="#D9D9D9"/>
<path d="M5.66656 9.64559C5.55396 9.64999 5.44916 9.66639 5.33316 9.66639C3.94856 9.66639 2.77596 9.32379 1.99976 8.75879V9.66639C1.99976 10.5862 3.49156 11.3328 5.33316 11.3328C5.44756 11.3328 5.55516 11.3218 5.66656 11.316V9.64559Z" fill="#D9D9D9"/>
</svg>
