<svg width="24" height="24" viewBox="0 0 24 24" fill="none" xmlns="http://www.w3.org/2000/svg">
<g clip-path="url(#clip0_71_7048)">
<path d="M22.077 5.42465L18.3445 3.69531V16.3483L21.1314 10.2395H21.0817L22.6244 6.8803C22.8707 6.32703 22.6268 5.67852 22.077 5.42465Z" fill="url(#paint0_linear_71_7048)"/>
<path d="M23.6449 13.6858L21.7289 11.4961L18.2951 19.0605V19.3218L23.5827 14.6811C23.8726 14.4224 23.9003 13.9786 23.6449 13.6858Z" fill="url(#paint1_linear_71_7048)"/>
<path d="M15.7201 0.000217774C15.72 0.000217774 15.7199 0.000217774 15.7197 0.000217774H1.62357C0.8334 -0.0066639 0.187282 0.628258 0.180342 1.41843C0.180283 1.42676 0.180283 1.4351 0.180342 1.44344V22.5939C0.193988 23.3792 0.838124 24.0067 1.62357 23.9998H15.7197C16.5098 24.0136 17.1614 23.3842 17.1752 22.5942C17.1754 22.5817 17.1755 22.5691 17.1754 22.5566V1.40612C17.1617 0.616011 16.5103 -0.0134289 15.7201 0.000217774ZM4.31092 3.22253C4.28263 3.2647 4.24414 3.29893 4.19895 3.32208L3.48978 4.20544C3.35034 4.34541 3.16448 4.42951 2.96724 4.44181C2.77164 4.42332 2.58776 4.34016 2.4447 4.20544L1.66089 3.29724C1.62911 3.26726 1.60736 3.22813 1.59867 3.18526C1.45701 3.00932 1.38213 2.78899 1.38714 2.56317C1.41409 1.95642 1.92473 1.48456 2.53177 1.50567C2.67489 1.50818 2.81701 1.52906 2.95476 1.5679C3.55866 1.33888 4.23394 1.64278 4.46296 2.24673C4.50151 2.34838 4.52571 2.45493 4.53481 2.56323C4.53218 2.80117 4.45374 3.03212 4.31092 3.22253ZM12.1988 12.0186L12.0992 12.143L9.48652 15.2659C9.29546 15.4772 9.02486 15.5989 8.74003 15.6018C8.4531 15.6089 8.17848 15.4853 7.99355 15.2659L5.29377 12.1057H5.23155C4.89959 11.7087 4.72283 11.2048 4.73391 10.6874C4.77397 9.36874 5.87545 8.33223 7.19411 8.37229C7.20349 8.37259 7.21283 8.37294 7.22221 8.37329C7.73776 8.37305 8.24268 8.51978 8.67786 8.79628C9.10581 8.51413 9.60852 8.36675 10.1211 8.37329C11.432 8.31059 12.5455 9.32249 12.6082 10.6334C12.6086 10.6431 12.609 10.6529 12.6094 10.6625C12.6346 11.1486 12.4894 11.6282 12.1988 12.0186ZM15.7944 21.2751L14.9608 22.2455C14.8178 22.3802 14.6339 22.4634 14.4383 22.4819C14.2434 22.4607 14.0603 22.3779 13.9157 22.2455L13.1195 21.3248V21.2626C12.9857 21.073 12.9121 20.8476 12.908 20.6157C12.9282 20.0045 13.4402 19.5254 14.0513 19.5457C14.0517 19.5457 14.0522 19.5457 14.0526 19.5457C14.1929 19.5253 14.3354 19.5253 14.4756 19.5457C15.0797 19.3172 15.7547 19.6217 15.9832 20.2259C16.023 20.331 16.0474 20.4413 16.0557 20.5535C16.0386 20.8191 15.9284 21.0701 15.7446 21.2627L15.7944 21.2751Z" fill="#EAEAEA"/>
</g>
<defs>
<linearGradient id="paint0_linear_71_7048" x1="20.5325" y1="3.69531" x2="20.5325" y2="16.3483" gradientUnits="userSpaceOnUse">
<stop stop-color="#F61000"/>
<stop offset="0.653846" stop-color="#F54D0D"/>
</linearGradient>
<linearGradient id="paint1_linear_71_7048" x1="21.0574" y1="11.4961" x2="21.0574" y2="19.3218" gradientUnits="userSpaceOnUse">
<stop stop-color="#F61000"/>
<stop offset="0.653846" stop-color="#F54D0D"/>
</linearGradient>
<clipPath id="clip0_71_7048">
<rect width="24" height="24" fill="white"/>
</clipPath>
</defs>
</svg>
