<svg width="24" height="24" viewBox="0 0 24 24" fill="none" xmlns="http://www.w3.org/2000/svg">
<path d="M4.875 14.25H3.375C2.75156 14.25 2.25 14.7516 2.25 15.375V22.125C2.25 22.7484 2.75156 23.25 3.375 23.25H4.875C5.49844 23.25 6 22.7484 6 22.125V15.375C6 14.7516 5.49844 14.25 4.875 14.25Z" fill="#EAEAEA"/>
<path d="M15.375 9.75H13.875C13.2516 9.75 12.75 10.2516 12.75 10.875V22.125C12.75 22.7484 13.2516 23.25 13.875 23.25H15.375C15.9984 23.25 16.5 22.7484 16.5 22.125V10.875C16.5 10.2516 15.9984 9.75 15.375 9.75Z" fill="#EAEAEA"/>
<path d="M20.625 4.5H19.125C18.5016 4.5 18 5.00156 18 5.625V22.125C18 22.7484 18.5016 23.25 19.125 23.25H20.625C21.2484 23.25 21.75 22.7484 21.75 22.125V5.625C21.75 5.00156 21.2484 4.5 20.625 4.5Z" fill="url(#paint0_linear_71_7041)"/>
<path d="M10.125 0.75H8.625C8.00156 0.75 7.5 1.25156 7.5 1.875V22.125C7.5 22.7484 8.00156 23.25 8.625 23.25H10.125C10.7484 23.25 11.25 22.7484 11.25 22.125V1.875C11.25 1.25156 10.7484 0.75 10.125 0.75Z" fill="url(#paint1_linear_71_7041)"/>
<defs>
<linearGradient id="paint0_linear_71_7041" x1="19.875" y1="4.5" x2="19.875" y2="23.25" gradientUnits="userSpaceOnUse">
<stop stop-color="#F61000"/>
<stop offset="0.653846" stop-color="#F54D0D"/>
</linearGradient>
<linearGradient id="paint1_linear_71_7041" x1="9.375" y1="0.75" x2="9.375" y2="23.25" gradientUnits="userSpaceOnUse">
<stop stop-color="#F61000"/>
<stop offset="0.653846" stop-color="#F54D0D"/>
</linearGradient>
</defs>
</svg>
